<?xml version="1.0" encoding="utf-8"?>
<!-- Generator: Adobe Illustrator 16.2.0, SVG Export Plug-In . SVG Version: 6.00 Build 0)  -->
<!DOCTYPE svg PUBLIC "-//W3C//DTD SVG 1.1//EN" "http://www.w3.org/Graphics/SVG/1.1/DTD/svg11.dtd">
<svg version="1.1" id="Layer_1" xmlns="http://www.w3.org/2000/svg" xmlns:xlink="http://www.w3.org/1999/xlink" x="0px" y="0px"
	 width="400px" height="300px" viewBox="0 0 400 300" enable-background="new 0 0 400 300" xml:space="preserve">
<path fill-rule="evenodd" clip-rule="evenodd" d="M314.34,264.518H85.66c-8.355,0-15.131-6.786-15.131-15.159v-12.63h258.941v12.63
	C329.471,257.731,322.691,264.518,314.34,264.518z M306.275,221.761H93.721c-12.576,0-22.771-10.214-22.771-22.811v-62.319V58.289
	c0-12.599,10.196-22.807,22.771-22.807h212.554c12.579,0,22.773,10.208,22.773,22.807v20.745V198.95
	C329.049,211.547,318.854,221.761,306.275,221.761z M303.242,72.354c0-10.079-8.155-18.246-18.223-18.246H114.975
	c-10.057,0-18.217,8.167-18.217,18.246v63.229v49.302c0,10.076,8.161,18.246,18.217,18.246H285.02
	c10.067,0,18.223-8.17,18.223-18.246V92.301V72.354z"/>
<path fill-rule="evenodd" clip-rule="evenodd" d="M-572.025,493.313c-5.53,24.381-19.863,46.176-38.344,62.754
	c-5.693,4.693-11.511,9.396-18.148,12.695c2.604-9.004,5.913-17.779,8.936-26.65c10.27-30.104,20.656-60.178,30.936-90.281
	c3.156-8.547,4.559-17.627,5.245-26.68c0.486-5.809-0.82-11.57-0.468-17.379c3.004,4.148,4.625,9.07,6.552,13.773
	C-568.486,444.246-566.56,469.563-572.025,493.313z M-614.431,431.961c6.084,12.086,8.392,26.289,5.445,39.584
	c-2.746,13.078-6.981,25.773-11.292,38.402c-3.022,9.119-4.948,18.602-8.401,27.576c-2.86-5.121-4.281-10.873-6.246-16.359
	c-12.092-37.447-25.108-74.58-37.41-111.963c5.389-0.236,11.004,0.049,16.107-1.955c4.014-1.43,2.049-8.279-1.975-8.078
	c-14.314,0.133-28.628,1.994-42.952,0.943c-7.323-0.199-14.628-0.857-21.952-0.943c-3.242-0.344-4.758,4.188-3.671,6.658
	c4.167,3.986,10.403,2.65,15.582,3.719c1.345,0.096,1.545,1.717,2.05,2.682c5.417,15.537,10.995,31.02,16.526,46.52
	c0.582,1.506,0.801,3.156,0.162,4.682c-7.123,21.215-14.161,42.457-21.228,63.689c-1.383,4.063-2.45,8.242-4.367,12.105
	c-7.047-19.527-13.227-39.375-19.931-59.025c-6.79-20.26-13.541-40.529-20.322-60.799c-1.191-3.338-2.308-6.705-3.127-10.148
	c5.244-0.381,10.766,0.182,15.734-1.869c3.824-1.613,1.821-8.289-2.155-8.203c-13.475,0.113-26.93,1.307-40.414,1.287
	c1.821-4.369,5.016-7.926,8.115-11.438c8.277-8.936,16.859-17.846,27.464-24.055c21.027-13.803,46.612-20.289,71.685-18.773
	c26.9,1.393,53.164,12.754,72.76,31.201c-4.395,0.459-9.049,1.164-12.512,4.16c-5.825,5.016-9.611,12.99-8.019,20.754
	C-626.705,413.275-620.029,422.547-614.431,431.961z M-796.583,516.844c-9.708-21.814-13.933-46.434-9.804-70.098
	c1.86-10.416,4.568-20.795,9.098-30.391c0.677,1.289,1.354,2.586,1.889,3.939c18.224,50.955,36.99,101.711,55.204,152.664
	C-765.066,561.98-784.539,540.93-796.583,516.844z M-688.023,479.357c0.496-1.25,1.125-2.441,1.717-3.643
	c5.902,14.068,10.414,28.682,15.744,42.971c5.513,14.822,10.977,29.664,16.488,44.486c1.793,5.096,3.986,10.045,5.379,15.281
	c-23.583,7.756-49.522,9.023-73.382,1.727c0.324-1.383,0.648-2.766,1.039-4.131C-709.985,543.838-698.99,511.607-688.023,479.357z"
	/>
<path fill-rule="evenodd" clip-rule="evenodd" d="M-858.227,539.5h-86.487c-11.464,0-20.757-9.293-20.757-20.755V331.256
	c0-11.463,9.293-20.756,20.757-20.756h86.487c11.463,0,20.756,9.293,20.756,20.756v187.489
	C-837.471,530.207-846.764,539.5-858.227,539.5z M-842.314,329.18c0-7.642-6.195-13.837-13.838-13.837h-90.637
	c-7.643,0-13.838,6.195-13.838,13.837v190.948c0,7.643,6.195,13.837,13.838,13.837h90.637c7.643,0,13.838-6.194,13.838-13.837
	V329.18z M-955.092,345.784h107.242v157.74h-107.242V345.784z M-901.816,507.675c5.732,0,10.379,4.646,10.379,10.378
	s-4.646,10.378-10.379,10.378c-5.731,0-10.378-4.646-10.378-10.378S-907.548,507.675-901.816,507.675z M-906.66,521.512
	c0,0.765,0.62,1.384,1.384,1.384h6.918c0.766,0,1.385-0.619,1.385-1.384v-6.918c0-0.765-0.619-1.384-1.385-1.384h-6.918
	c-0.765,0-1.384,0.619-1.384,1.384V521.512z M-904.93,513.694h6.227c0.688,0,1.246,0.558,1.246,1.245v6.227
	c0,0.688-0.559,1.245-1.246,1.245h-6.227c-0.688,0-1.246-0.558-1.246-1.245v-6.227C-906.176,514.252-905.617,513.694-904.93,513.694
	z"/>
<g>
	<g>
		<path fill-rule="evenodd" clip-rule="evenodd" d="M-285.263,34.994h-141.716c-26.864,0-48.643,21.798-48.643,48.687v86.638
			c0,26.889,21.778,48.686,48.643,48.686h47.221l-13.132,46.002l72.226-46.002h35.401c26.865,0,48.644-21.797,48.644-48.686V83.681
			C-236.619,56.792-258.397,34.994-285.263,34.994z M-326.216,127.988h-19.525v69.021H-375v-69.021h-14.616v-23.781H-375V89.928
			c0-19.406,8.252-30.939,31.705-30.939h19.525v23.786h-12.205c-9.129,0-9.731,3.321-9.731,9.523l-0.035,11.909h22.109
			L-326.216,127.988z"/>
	</g>
</g>
<text transform="matrix(1 0 0 1 43.8042 539.5)" font-family="'OpenSans-CondensedBold'" font-size="222.0179">SEO</text>
<g>
	<path fill="none" stroke="#000000" stroke-width="3" stroke-miterlimit="10" d="M-0.5,353c0-6.627-3.322-10.5-9.193-10.5h-196.655
		c-5.871,0-12.152,3.873-12.152,10.5v222c0,6.627,6.281,13.5,12.152,13.5H-9.693c5.871,0,9.193-6.873,9.193-13.5V353z"/>
	<rect x="-205" y="357" width="191" height="206"/>
	<path fill="none" stroke="#808080" stroke-width="2" stroke-miterlimit="10" d="M-1,352c0-6.627-2.656-10-8.526-10h-196.655
		c-5.871,0-12.818,3.373-12.818,10v222c0,6.627,6.948,14,12.818,14H-9.526C-3.656,588-1,580.627-1,574V352z"/>
	<circle fill="none" stroke="#808080" stroke-width="2" stroke-miterlimit="10" cx="-109.563" cy="575.338" r="7.811"/>
	<circle fill="none" stroke="#000000" stroke-width="2" stroke-miterlimit="10" cx="-109.563" cy="575.338" r="8.985"/>
	<path fill="none" stroke="#FFFFFF" stroke-miterlimit="10" d="M-105.5,578.463c0,0.573-0.465,1.037-1.037,1.037h-5.926
		c-0.573,0-1.037-0.464-1.037-1.037v-5.926c0-0.573,0.464-1.037,1.037-1.037h5.926c0.572,0,1.037,0.464,1.037,1.037V578.463z"/>
</g>
<g>
	<polygon stroke="#000000" stroke-width="4" stroke-miterlimit="10" points="-260,391 -259.5,391 -259.5,386.5 -264.5,386.5 
		-264.5,383.5 -268.5,383.5 -268.5,379.5 -498.5,379.5 -498.5,529.5 -494.5,529.5 -494.5,533.5 -489.5,533.5 -489.5,536.5 
		-485.5,536.5 -485.5,540.5 -255.5,540.5 -255.5,390.5 -260,390.5 -260,391 -259.5,391 -260,391 -260,391.5 -256.5,391.5 
		-256.5,539.5 -484.5,539.5 -484.5,535.5 -488.5,535.5 -488.5,532.5 -493.5,532.5 -493.5,528.5 -497.5,528.5 -497.5,380.5 
		-269.5,380.5 -269.5,384.5 -265.5,384.5 -265.5,387.5 -260.5,387.5 -260.5,391.5 -260,391.5 	"/>
</g>
</svg>
